<svg width="32" height="32" viewBox="0 0 32 32" fill="none" xmlns="http://www.w3.org/2000/svg">
  <rect width="32" height="32" rx="8" fill="#465FFF"/>
  <path d="M16 10C13.79 10 12 11.79 12 14C12 16.21 13.79 18 16 18C18.21 18 20 16.21 20 14C20 11.79 18.21 10 16 10ZM16 16.5C14.62 16.5 13.5 15.38 13.5 14C13.5 12.62 14.62 11.5 16 11.5C17.38 11.5 18.5 12.62 18.5 14C18.5 15.38 17.38 16.5 16 16.5Z" fill="white"/>
  <path d="M10 22C10 19.79 11.79 18 14 18H18C20.21 18 22 19.79 22 22V23H10V22ZM11.5 21.5H20.5C20.5 20.62 19.88 20 19 20H13C12.12 20 11.5 20.62 11.5 21.5Z" fill="white"/>
  <circle cx="24" cy="8" r="4" fill="#12B76A"/>
  <path d="M22.5 8L23.5 9L25.5 7" stroke="white" stroke-width="1.5" stroke-linecap="round" stroke-linejoin="round"/>
</svg>

